<?xml version="1.0" encoding="UTF-8"?>
<svg width="86px" height="71px" viewBox="0 0 86 71" version="1.1" xmlns="http://www.w3.org/2000/svg" xmlns:xlink="http://www.w3.org/1999/xlink">
    <!-- Generator: Sketch 46.2 (44496) - http://www.bohemiancoding.com/sketch -->
    <title>logo</title>
    <desc>Created with Sketch.</desc>
    <defs></defs>
    <g id="Page-1" stroke="none" stroke-width="1" fill="none" fill-rule="evenodd">
        <g id="logo" fill-rule="nonzero" fill="#231F20">
            <path d="M22.44,54.48 L22.44,54.48 L22.44,54.48 C22.32,54.56 22.19,54.66 22.19,54.8 L22.19,54.93 C22.1851055,55.0053254 22.2145071,55.0788295 22.27,55.13 L22.06,62.95 C22.06,63.11 22.06,63.54 22.14,64.23 C22.0479998,64.3010774 21.9870781,64.4050027 21.97,64.52 C21.9725962,64.6474403 22.0406073,64.7645706 22.15,64.83 C22.15,65 22.15,65.31 22.15,65.74 C22.15,65.88 22.15,66.09 22.15,66.4 L22.27,68.14 C22.2585362,68.1825751 22.2585362,68.2274249 22.27,68.27 C22.27,68.69 22.34,69.04 22.39,69.32 C22.3791538,69.3558646 22.3791538,69.3941354 22.39,69.43 L22.39,69.79 L22.39,69.79 C22.47,69.92 22.57,70.04 22.71,70.04 L22.72,70.04 C22.86,69.98 22.97,69.83 23.07,69.55 L23.07,69.36 C23.0894248,69.1985821 23.042512,69.0361917 22.94,68.91 C22.94,68.56 22.89,67.66 22.81,66.18 C22.81,66.18 22.81,66 22.81,65.72 C22.7941625,65.420209 22.7941625,65.119791 22.81,64.82 C22.9331084,64.8094662 23.0568916,64.8094662 23.18,64.82 L23.24,64.82 C23.8115557,64.543229 24.2832174,64.0960239 24.59,63.54 C25.2066594,61.5976575 25.5433775,59.5773486 25.59,57.54 C25.5654785,57.1840771 25.5017596,56.8319465 25.4,56.49 C24.984456,55.2254145 23.7686944,54.3998466 22.44,54.48 Z M24.8,57.35 C24.8,57.51 24.8,57.86 24.8,58.35 C24.4,62.52 23.91,63.42 23.63,63.6 C23.4261175,63.844948 23.1432164,64.0111523 22.83,64.07 C22.83,63.82 22.83,63.44 22.83,62.94 L23.04,55.26 C23.2534776,55.3028884 23.4639257,55.359676 23.67,55.43 C24.3335164,55.8449096 24.7518787,56.5583666 24.79,57.34 L24.8,57.35 Z" id="Shape"></path>
            <path d="M30.1,55.52 L29.72,55.52 L28.87,56.22 L28.87,56.3 C28.8599296,56.3595774 28.8599296,56.4204226 28.87,56.48 C28.3070121,57.981836 28.032213,59.5763496 28.06,61.18 L28.06,62.01 C28.12,63.8 28.18,65.19 28.24,66.16 C28.48,68.81 29.03,70.1 29.93,70.1 L30.1,70.1 C30.4070432,70.0615042 30.6814712,69.8895294 30.85,69.63 C31.28,68.97 31.49,66.99 31.49,63.57 C31.4898586,61.3992195 31.3428563,59.2309354 31.05,57.08 C30.61,55.73 30.33,55.52 30.1,55.52 Z M30.72,63.52 L30.72,63.61 C30.72,69 30.13,69.28 30.02,69.28 C29.91,69.28 29.43,69.01 29.14,67.28 C29,66.21 28.89,64.18 28.79,61.28 L28.88,60.03 C29.17,57.5 29.59,56.61 29.88,56.33 C30.0158155,56.551728 30.1296876,56.7861705 30.22,57.03 C30.565781,59.192594 30.733012,61.3799754 30.72,63.57 L30.72,63.52 Z" id="Shape"></path>
            <path d="M38.72,55.59 C38.3518953,55.6372315 37.9811219,55.6606136 37.61,55.66 L35.8,55.66 C35.57,55.66 35.17,55.66 34.63,55.74 L34.31,55.67 L34.25,55.67 L34.19,55.67 C34.07,55.73 33.92,55.82 33.92,55.97 C33.9170345,56.1362206 33.9778714,56.2972594 34.09,56.42 L34.15,56.48 L35.61,56.35 L35.72,56.35 C35.77,57.07 35.8,57.88 35.8,58.75 C36.06,64.37 36.19,67.53 36.19,68.12 C36.19,68.36 36.19,68.5 36.19,68.56 L36.19,68.62 L36.19,68.62 C36.32,68.78 36.4,68.83 36.49,68.83 L36.66,68.83 C36.84,68.83 36.92,68.64 36.95,68.58 L36.95,68.58 L36.95,68.28 L36.95,68.28 L36.95,68.28 C36.9620019,68.2273419 36.9620019,68.1726581 36.95,68.12 C36.95,66.22 36.82,63.06 36.56,58.73 C36.56,58.73 36.56,58.61 36.56,58.41 L36.47,56.41 L36.47,56.41 L37.64,56.41 C38.69,56.41 39.03,56.32 39.03,56.06 L39.03,55.89 L38.8,55.62 L38.72,55.59 Z" id="Shape"></path>
            <path d="M45.4,55.59 C45.0319006,55.6372872 44.6611237,55.6606695 44.29,55.66 L42.51,55.66 C42.28,55.66 41.88,55.66 41.34,55.74 L41.03,55.67 L40.97,55.67 L40.91,55.67 C40.79,55.73 40.64,55.82 40.64,55.97 C40.6397421,56.1375963 40.7042296,56.2988151 40.82,56.42 L40.87,56.48 L42.33,56.35 L42.39,56.35 C42.44,57.07 42.47,57.88 42.47,58.75 C42.73,64.37 42.86,67.53 42.86,68.12 C42.86,68.36 42.86,68.5 42.86,68.56 L42.86,68.62 L42.86,68.62 C42.99,68.78 43.07,68.83 43.16,68.83 L43.33,68.83 C43.51,68.83 43.59,68.64 43.61,68.58 L43.61,68.58 L43.61,68.28 L43.61,68.28 L43.61,68.28 C43.6220019,68.2273419 43.6220019,68.1726581 43.61,68.12 C43.61,66.22 43.48,63.06 43.22,58.73 L43.22,58.41 L43.14,56.41 L43.14,56.41 L44.31,56.41 C45.31,56.41 45.7,56.32 45.7,56.06 L45.7,55.89 L45.47,55.62 L45.4,55.59 Z" id="Shape"></path>
            <path d="M54.19,55.43 L54.01,55.43 L53.77,55.59 L53.77,55.67 C53.55,58.76 53.36,62.78 53.19,67.67 L53.01,67.04 C52.4,65.04 52.01,63.7 51.89,63.04 C51.72,61.35 51.54,61.19 51.3,61.19 L51.3,61.19 L50.99,61.25 L50.99,61.34 C50.7545858,62.9704535 50.6143483,64.613236 50.57,66.26 L50.35,65.07 C50.18,64.13 49.83,61.92 49.35,58.51 C49.05,55.88 48.9,55.88 48.7,55.88 L48.48,55.88 L48.48,55.88 C48.3356963,55.9435574 48.2391491,56.0825853 48.23,56.24 C48.2693946,56.4553481 48.3296794,56.6663451 48.41,56.87 C49.04,61.61 49.69,65.52 50.32,68.49 C50.5,70.01 50.64,70.12 50.84,70.12 L51.02,70.12 L51.27,69.95 L51.27,69.86 C51.27,69.01 51.36,67.17 51.55,64.39 C51.71,64.99 51.99,65.94 52.46,67.47 C53.09,69.77 53.28,69.77 53.46,69.77 L53.55,69.77 C53.77,69.77 53.9,69.52 54.02,68.82 C54.11,66.43 54.31,62.03 54.63,55.76 L54.63,55.76 L54.63,55.76 C54.39,55.51 54.3,55.43 54.19,55.43 Z" id="Shape"></path>
            <path d="M59.95,56.55 C59.8010716,55.8770414 59.3910294,55.290753 58.81,54.92 L58.7,54.92 C58.14,54.92 57.96,55.78 57.9,56.08 C57.5741156,58.2822402 57.3970476,60.5039428 57.37,62.73 C57.37,63.14 57.37,63.55 57.37,63.94 C57.37,64.56 57.26,66.41 57.03,69.47 C57.03,70.06 57.41,70.12 57.58,70.12 L57.58,70.12 L57.58,70.12 C57.72,70.04 57.85,69.93 57.85,69.78 C57.8473574,69.6674666 57.8164047,69.5574128 57.76,69.46 L58.05,65.46 L58.05,63.73 C58.7478765,63.5023748 59.4760222,63.3810172 60.21,63.37 L60.42,63.37 C60.64,65.01 60.78,65.92 60.84,66.12 C60.9314084,67.3441152 61.1560704,68.5546076 61.51,69.73 L61.51,69.82 L61.61,69.82 C61.9,69.82 62.02,69.69 62.06,69.57 L62.06,69.51 C62.0569675,68.3815685 61.9430873,67.256164 61.72,66.15 C61.4628141,62.8975003 60.8696533,59.6803572 59.95,56.55 Z M60.49,62.6 C59.7097604,62.6194773 58.9344836,62.7302312 58.18,62.93 C58.18,62.47 58.18,62.23 58.18,62.12 L58.18,62.12 L58.18,61.95 C58.1408445,59.9353196 58.3286948,57.9226374 58.74,55.95 C58.8431168,56.1057546 58.9334136,56.2696266 59.01,56.44 C59.6885365,58.4443707 60.1838986,60.5061481 60.49,62.6 Z" id="Shape"></path>
            <path d="M68.63,69.32 L66.45,69.32 L66.45,65.73 C66.4631307,64.7549723 66.4197246,63.7800033 66.32,62.81 C66.32,60.64 66.22,57.94 66.02,54.81 L66.02,54.81 C66.04003,54.7244906 66.04003,54.6355094 66.02,54.55 L66.02,54.5 L66.02,54.5 C65.94,54.38 65.84,54.25 65.7,54.25 L65.7,54.25 C65.4814419,54.2337619 65.2829702,54.3773372 65.23,54.59 L65.23,54.59 L65.36,56.05 C65.47,58.56 65.59,61.76 65.71,65.58 L65.71,68.77 L65.71,69.23 C65.6894246,69.3457595 65.6894246,69.4642405 65.71,69.58 L65.71,69.89 L65.71,69.89 C65.79,70.02 65.89,70.14 66.03,70.14 L68.03,70.14 C68.5,70.14 68.94,70.14 68.94,69.8 L68.94,69.67 L68.94,69.59 C68.84,69.4 68.72,69.32 68.63,69.32 Z" id="Shape"></path>
            <path d="M84.91,0.52 C84.7506226,0.314586328 84.4993743,0.202087083 84.24,0.22 L83.95,0.22 C83.02,0.4 82.06,0.49 81.12,0.58 C79.2077347,0.634503098 77.3250551,1.06609211 75.58,1.85 C75.3964125,1.95143446 75.1735875,1.95143446 74.99,1.85 C74.9038939,1.80175786 74.8135086,1.76158662 74.72,1.73 C74.1029768,1.58850626 73.4729356,1.51142676 72.84,1.5 C72.2201359,1.48993984 71.6056372,1.61625347 71.04,1.87 C69.9689618,2.3906624 68.7759324,2.60851994 67.59,2.5 C66.97,2.44 66.59,2.55 66.4,2.85 C66.2483586,3.175329 66.2827068,3.55697511 66.49,3.85 C67.1005646,5.36270412 68.4106695,6.48245195 70,6.85 L70.9,7.02 C71.62,7.15 72.37,7.29 73.08,7.48 C73.457543,7.50869242 73.798386,7.71681331 73.9963838,8.03954979 C74.1943817,8.36228628 74.2254822,8.76043323 74.08,9.11 C73.45,11.73 72.21,13.37 67.49,14.58 C61.9629784,15.855416 56.3622512,16.7872007 50.72,17.37 C49.05,17.58 47.4,17.79 45.72,18.01 C43.7011936,18.3260724 41.6630672,18.5031555 39.62,18.54 C38.4578349,18.5467273 37.2971369,18.4564136 36.15,18.27 C33.7244689,17.8233631 31.2659988,17.5791885 28.8,17.54 C28.34,17.54 27.88,17.54 27.43,17.54 C25.99,17.61 24.52,17.65 23.1,17.69 L20,17.78 C15.5768137,17.8029327 11.186574,18.5425193 7,19.97 C5.38,20.59 3.07,21.62 1.82,23.46 C0.69,25.12 0.82,27.05 1.17,28.89 C1.50197113,30.4409736 2.02250711,31.9454904 2.72,33.37 C4.11449273,36.4955264 5.81264705,39.4765074 7.79,42.27 C8.88,43.8 10.42,45.63 12.79,46.15 C13.118524,46.2218138 13.4537211,46.2586855 13.79,46.26 C14.5672907,46.2347162 15.3405804,46.1376365 16.1,45.97 C16.8526759,45.8024554 17.6193194,45.7053695 18.39,45.68 C18.6064373,45.6659018 18.8235627,45.6659018 19.04,45.68 C19.7208336,45.7788391 20.3905835,45.9429278 21.04,46.17 C22.0819952,46.5496996 23.1810323,46.7492171 24.29,46.76 C24.7882611,46.7576331 25.2858911,46.7242351 25.78,46.66 C27.304822,46.4196774 28.806767,46.0517176 30.27,45.56 C31.09,45.31 31.95,45.05 32.79,44.84 L34.39,44.45 C36.71,43.88 39.12,43.29 41.49,42.75 C43.23,42.35 45.03,42.08 46.77,41.81 C47.77,41.66 48.72,41.51 49.69,41.34 C50.3959082,41.2020139 51.0936412,41.0250769 51.78,40.81 C52.5580799,40.5611687 53.3536142,40.3706416 54.16,40.24 C54.8074657,40.1853404 55.459233,40.2122174 56.1,40.32 C56.5632036,40.3948349 57.0309369,40.4382673 57.5,40.45 C57.858093,40.4523459 58.2147949,40.4052343 58.56,40.31 C59.29,40.11 59.67,39.87 59.82,39.52 C59.9512371,39.0551179 59.8668063,38.5558748 59.59,38.16 C59.4367685,37.8605226 59.2559884,37.5759613 59.05,37.31 C59.41,36.96 59.73,36.63 60.05,36.31 C61.0539609,35.16667 62.2567074,34.2146369 63.6,33.5 L64.08,33.25 C65.8680971,32.43751 67.528753,31.3697049 69.01,30.08 C70.2115341,28.8445521 71.3023815,27.5060891 72.27,26.08 C72.69,25.5 73.12,24.9 73.55,24.33 C73.98,23.76 74.66,22.97 75.22,22.33 C76.6696963,20.8065275 77.8770753,19.0696554 78.8,17.18 C79.930901,14.4369015 79.8399808,11.3419798 78.55,8.67 C78.14,7.78 78.4,7.14 79.36,6.67 L80,6.36 C80.77,5.99 81.57,5.61 82.31,5.18 C83.6362565,4.40316793 84.6027972,3.13480784 85,1.65 C85.1429601,1.27918168 85.1098538,0.863514555 84.91,0.52 Z M30.97,36.6 L36.04,36.6 C35.9325571,37.6787201 35.1548368,38.5715957 34.1010614,38.8260329 C33.0472859,39.0804701 31.9478292,38.6408446 31.36,37.73 C31.1991939,37.5216647 31.0895824,37.2784642 31.04,37.02 C31.0049986,36.8821963 30.9815836,36.7417067 30.97,36.6 L30.97,36.6 Z" id="Shape"></path>
        </g>
    </g>
</svg>