<?xml version="1.0" encoding="UTF-8"?>
<svg width="86px" height="73px" viewBox="0 0 86 73" version="1.1" xmlns="http://www.w3.org/2000/svg" xmlns:xlink="http://www.w3.org/1999/xlink">
    <!-- Generator: Sketch 46.2 (44496) - http://www.bohemiancoding.com/sketch -->
    <title>Artboard</title>
    <desc>Created with Sketch.</desc>
    <defs></defs>
    <g id="Page-1" fill-rule="evenodd">
        <g id="Artboard" fill-rule="nonzero">
            <path d="M22.519337,55.0055108 L22.519337,55.0055108 L22.519337,55.0055108 C22.3867403,55.0877447 22.2430939,55.1905371 22.2430939,55.3344463 L22.2430939,55.4680764 C22.2376856,55.5455052 22.2701736,55.6210618 22.3314917,55.6736611 L22.0994475,63.7120226 C22.0994475,63.8764904 22.0994475,64.3184975 22.1878453,65.0277646 C22.0861876,65.1008268 22.0188708,65.207654 22,65.3258625 C22.0028687,65.4568613 22.0780192,65.5772623 22.198895,65.6445187 C22.198895,65.8192657 22.198895,66.137922 22.198895,66.5799291 C22.198895,66.7238384 22.198895,66.9397023 22.198895,67.2583586 L22.3314917,69.0469454 C22.3188245,69.0907094 22.3188245,69.1368115 22.3314917,69.1805755 C22.3314917,69.6123033 22.4088398,69.9720765 22.4640884,70.2598951 C22.4521036,70.2967611 22.4521036,70.3361006 22.4640884,70.3729667 L22.4640884,70.7430191 L22.4640884,70.7430191 C22.5524862,70.8766492 22.6629834,71 22.8176796,71 L22.8287293,71 C22.9834254,70.9383246 23.1049724,70.7841361 23.2154696,70.4963175 L23.2154696,70.301012 C23.2369335,70.1350868 23.1850961,69.9681618 23.0718232,69.8384465 C23.0718232,69.4786733 23.0165746,68.5535421 22.9281768,67.0322154 C22.9281768,67.0322154 22.9281768,66.8471892 22.9281768,66.5593706 C22.9106768,66.2512084 22.9106768,65.9424017 22.9281768,65.6342395 C23.0642082,65.6234116 23.2009852,65.6234116 23.3370166,65.6342395 L23.4033149,65.6342395 C24.0348682,65.3497401 24.5560414,64.8900474 24.8950276,64.3184975 C25.5764192,62.321918 25.9484835,60.2451951 26,58.1509566 C25.9729044,57.7850951 25.9024968,57.4231318 25.7900552,57.071637 C25.3308906,55.7717398 23.9875076,54.9231193 22.519337,55.0055108 Z M25.1270718,57.9556512 C25.1270718,58.1201189 25.1270718,58.4798922 25.1270718,58.9835747 C24.6850829,63.2700155 24.1436464,64.1951466 23.8342541,64.3801729 C23.6089696,64.6319606 23.2963718,64.802806 22.9502762,64.8632969 C22.9502762,64.606316 22.9502762,64.2157051 22.9502762,63.7017434 L23.1823204,55.8072911 C23.4182073,55.8513771 23.6507466,55.9097504 23.878453,55.9820381 C24.6116204,56.4085334 25.0738991,57.1419126 25.1160221,57.9453719 L25.1270718,57.9556512 Z" id="Shape"></path>
            <path d="M29.784935,57 L29.452759,57 L28.7097336,57.7201646 L28.7097336,57.8024691 C28.7009306,57.8637628 28.7009306,57.9263607 28.7097336,57.9876543 C28.2175992,59.5327531 27.9773842,61.1731992 28.0016742,62.8230453 L28.0016742,63.6769547 C28.054123,65.5185185 28.1065719,66.9485597 28.1590207,67.9465021 C28.3688161,70.6728395 28.8495972,72 29.6363299,72 L29.784935,72 C30.0533361,71.9603953 30.2932266,71.7834664 30.4405456,71.5164609 C30.816429,70.8374486 31,68.8004115 31,65.281893 C30.9998764,63.0485798 30.8713747,60.8178348 30.6153751,58.6049383 C30.2307502,57.2160494 29.9859889,57 29.784935,57 Z M30.3269064,65.2304527 L30.3269064,65.3230453 C30.3269064,70.8683128 29.8111594,71.1563786 29.7150032,71.1563786 C29.618847,71.1563786 29.1992562,70.8786008 28.9457534,69.0987654 C28.8233728,67.9979424 28.7272166,65.909465 28.6398018,62.9259259 L28.7184751,61.6399177 C28.9719779,59.037037 29.3391198,58.1213992 29.5926226,57.8333333 C29.7113453,58.0614485 29.8108863,58.3026446 29.8898327,58.5534979 C30.1920963,60.7783888 30.3382808,63.0287813 30.3269064,65.281893 L30.3269064,65.2304527 Z" id="Shape"></path>
            <path d="M38.6966793,57 C38.3365059,57.0463753 37.9737213,57.0693336 37.6105957,57.0687311 L35.8395944,57.0687311 C35.61455,57.0687311 35.2231685,57.0687311 34.6948035,57.147281 L34.3816983,57.0785498 L34.322991,57.0785498 L34.2642838,57.0785498 C34.1468694,57.1374622 34.0001013,57.2258308 34.0001013,57.3731118 C33.9971997,57.5363193 34.0567258,57.694439 34.1664384,57.8149547 L34.2251457,57.8738671 L35.6536882,57.7462236 L35.7613181,57.7462236 C35.8102408,58.4531722 35.8395944,59.2484894 35.8395944,60.102719 C36.0939923,65.6208459 36.2211913,68.723565 36.2211913,69.3028701 C36.2211913,69.5385196 36.2211913,69.6759819 36.2211913,69.7348943 L36.2211913,69.7938066 L36.2211913,69.7938066 C36.3483903,69.9509063 36.4266666,70 36.5147275,70 L36.6810646,70 C36.8571863,70 36.9354626,69.8134441 36.9648162,69.7545317 L36.9648162,69.7545317 L36.9648162,69.4599698 L36.9648162,69.4599698 L36.9648162,69.4599698 C36.9765595,69.4082662 36.9765595,69.3545737 36.9648162,69.3028701 C36.9648162,67.4373112 36.8376172,64.3345921 36.5832192,60.0830816 C36.5832192,60.0830816 36.5832192,59.9652568 36.5832192,59.7688822 L36.4951584,57.805136 L36.4951584,57.805136 L37.6399493,57.805136 C38.6673257,57.805136 39,57.7167674 39,57.4614804 L39,57.2945619 L38.7749556,57.0294562 L38.6966793,57 Z" id="Shape"></path>
            <path d="M45.7035574,57 C45.3398229,57.04643 44.9734425,57.0693885 44.6067196,57.0687311 L42.8478266,57.0687311 C42.6205539,57.0687311 42.225297,57.0687311 41.6917003,57.147281 L41.3853762,57.0785498 L41.3260877,57.0785498 L41.2667991,57.0785498 C41.1482221,57.1374622 41.0000008,57.2258308 41.0000008,57.3731118 C40.9997459,57.53767 41.0634687,57.6959665 41.1778663,57.8149547 L41.2272735,57.8738671 L42.669961,57.7462236 L42.7292495,57.7462236 C42.7786566,58.4531722 42.8083009,59.2484894 42.8083009,60.102719 C43.0652178,65.6208459 43.1936763,68.723565 43.1936763,69.3028701 C43.1936763,69.5385196 43.1936763,69.6759819 43.1936763,69.7348943 L43.1936763,69.7938066 L43.1936763,69.7938066 C43.3221348,69.9509063 43.4011862,70 43.490119,70 L43.6581031,70 C43.8359687,70 43.9150201,69.8134441 43.9347829,69.7545317 L43.9347829,69.7545317 L43.9347829,69.4599698 L43.9347829,69.4599698 L43.9347829,69.4599698 C43.9466425,69.4082662 43.9466425,69.3545737 43.9347829,69.3028701 C43.9347829,67.4373112 43.8063244,64.3345921 43.5494075,60.0830816 L43.5494075,59.7688822 L43.4703561,57.805136 L43.4703561,57.805136 L44.6264824,57.805136 C45.6146246,57.805136 46,57.7167674 46,57.4614804 L46,57.2945619 L45.7727273,57.0294562 L45.7035574,57 Z" id="Shape"></path>
            <path d="M53.5875,56 L53.41875,56 L53.19375,56.1633764 L53.19375,56.2450647 C52.9875,59.4002723 52.809375,63.5051055 52.65,68.4982982 L52.48125,67.8550034 C51.909375,65.8127978 51.54375,64.4445201 51.43125,63.7705922 C51.271875,62.0449285 51.103125,61.8815521 50.878125,61.8815521 L50.878125,61.8815521 L50.5875,61.9428182 L50.5875,62.0347175 C50.3667992,63.6995781 50.2353265,65.3770279 50.19375,67.0585432 L49.9875,65.8434309 C49.828125,64.8835943 49.5,62.6269571 49.05,59.1449966 C48.76875,56.4594963 48.628125,56.4594963 48.440625,56.4594963 L48.234375,56.4594963 L48.234375,56.4594963 C48.0990902,56.5243949 48.0085773,56.6663566 48,56.8270933 C48.0369324,57.0469858 48.0934495,57.2624354 48.16875,57.470388 C48.759375,62.3104152 49.36875,66.3029272 49.959375,69.3356025 C50.128125,70.8876787 50.259375,71 50.446875,71 L50.615625,71 L50.85,70.8264125 L50.85,70.7345133 C50.85,69.8665759 50.934375,67.9877468 51.1125,65.149081 C51.2625,65.7617427 51.525,66.7317903 51.965625,68.2940776 C52.55625,70.642614 52.734375,70.642614 52.903125,70.642614 L52.9875,70.642614 C53.19375,70.642614 53.315625,70.3873383 53.428125,69.6725664 C53.5125,67.2321307 53.7,62.7392784 54,56.3369639 L54,56.3369639 L54,56.3369639 C53.775,56.0816882 53.690625,56 53.5875,56 Z" id="Shape"></path>
            <path d="M59.9025845,57.6085526 C59.7545443,56.9444487 59.3469477,56.3658747 58.7693837,56 L58.6600398,56 C58.1033797,56 57.9244533,56.8486842 57.8648111,57.1447368 C57.5408704,59.3180002 57.3648585,61.5104698 57.3379722,63.7072368 C57.3379722,64.1118421 57.3379722,64.5164474 57.3379722,64.9013158 C57.3379722,65.5131579 57.2286282,67.3388158 57,70.3585526 C57,70.9407895 57.3777336,71 57.5467197,71 L57.5467197,71 L57.5467197,71 C57.6858847,70.9210526 57.8151093,70.8125 57.8151093,70.6644737 C57.8124825,70.553421 57.7817145,70.4448153 57.7256461,70.3486842 L58.0139165,66.4013158 L58.0139165,64.6940789 C58.7076307,64.4694488 59.4314336,64.349688 60.1610338,64.3388158 L60.3697813,64.3388158 C60.5884692,65.9572368 60.7276342,66.8552632 60.7872763,67.0526316 C60.8781395,68.26064 61.1014616,69.4552048 61.4532803,70.6151316 L61.4532803,70.7039474 L61.5526839,70.7039474 C61.8409543,70.7039474 61.9602386,70.5756579 62,70.4572368 L62,70.3980263 C61.9969856,69.2844426 61.8837846,68.1738461 61.6620278,67.0822368 C61.4063758,63.8725332 60.8167528,60.697721 59.9025845,57.6085526 Z M60.4393638,63.5789474 C59.6637778,63.5981684 58.8931249,63.707465 58.1431412,63.9046053 C58.1431412,63.4506579 58.1431412,63.2138158 58.1431412,63.1052632 L58.1431412,63.1052632 L58.1431412,62.9375 C58.1042192,60.9493285 58.2909491,58.963129 58.6998012,57.0164474 C58.802303,57.1701526 58.8920612,57.3318684 58.9681909,57.5 C59.6426804,59.4779974 60.135088,61.5126462 60.4393638,63.5789474 Z" id="Shape"></path>
            <path d="M68.6657682,70.1743884 L66.3153639,70.1743884 L66.3153639,66.5598205 C66.329521,65.5781203 66.2827219,64.5964792 66.1752022,63.6198378 C66.1752022,61.4349876 66.0673854,58.7165103 65.851752,55.5650905 L65.851752,55.5650905 C65.8733477,55.4789959 65.8733477,55.3894057 65.851752,55.3033112 L65.851752,55.252969 L65.851752,55.252969 C65.7654987,55.1321478 65.6576819,55.0012581 65.5067385,55.0012581 L65.5067385,55.0012581 C65.2710964,54.9849089 65.0571107,55.1294667 65,55.3435849 L65,55.3435849 L65.1401617,56.8135763 C65.2587601,59.3407533 65.3881402,62.5626522 65.5175202,66.408794 L65.5175202,69.6206245 L65.5175202,70.0837725 C65.4953365,70.2003242 65.4953365,70.319616 65.5175202,70.4361677 L65.5175202,70.7482891 L65.5175202,70.7482891 C65.6037736,70.8791788 65.7115903,71 65.8625337,71 L68.0188679,71 C68.5256065,71 69,71 69,70.6576732 L69,70.5267836 L69,70.4462361 C68.8921833,70.2549359 68.7628032,70.1743884 68.6657682,70.1743884 Z" id="Shape"></path>
            <path d="M84.8226566,1.30482905 C84.6635928,1.09739336 84.4128389,0.983786708 84.1539749,1.00187595 L83.8645455,1.00187595 C82.9363753,1.18364781 81.9782642,1.27453374 81.0401137,1.36541967 C79.1316109,1.42045928 77.2526356,1.85629671 75.511014,2.64792112 C75.3277877,2.75035407 75.1054011,2.75035407 74.9221748,2.64792112 C74.8362381,2.5992041 74.7460307,2.55863743 74.6527061,2.52673988 C74.0368969,2.38385333 73.4080954,2.30601508 72.7764051,2.29447584 C72.1577606,2.28431665 71.5444709,2.41187367 70.9799467,2.668118 C69.9110158,3.19390562 68.7203338,3.41390768 67.5367348,3.3043195 C66.9179546,3.24372888 66.5387023,3.35481169 66.3490762,3.65776479 C66.1977331,3.98629622 66.2320137,4.37169912 66.4388991,4.66760845 C67.0482623,6.19520312 68.3557896,7.32597337 69.9419929,7.69713944 L70.8402221,7.86881286 C71.5588055,8.00009253 72.3073298,8.14147065 73.0159329,8.33334094 C73.392733,8.3623158 73.7329054,8.57248536 73.9305136,8.89839876 C74.1281219,9.22431215 74.1591612,9.62637833 74.0139653,9.97938611 C73.3852049,12.6251765 72.1476446,14.2813201 67.4369315,15.5032309 C61.9207846,16.7912017 56.3310773,17.7321586 50.6999275,18.3206948 C49.0332133,18.5327619 47.3864598,18.7448291 45.7097653,18.9669947 C43.6949311,19.2861784 41.6608147,19.4650047 39.6217674,19.5022118 C38.4618889,19.5090053 37.3034747,19.4178026 36.1585949,19.2295541 C33.7378361,18.7785206 31.2842032,18.5319425 28.8230564,18.4923682 C28.3639615,18.4923682 27.9048666,18.4923682 27.455752,18.4923682 C26.0185853,18.5630572 24.5514776,18.603451 23.1342715,18.6438447 L20.040371,18.7347307 C15.6258876,18.7578891 11.2442859,19.5047559 7.06594924,20.9462883 C5.44913669,21.5723914 3.14368175,22.6125303 1.8961412,24.4706427 C0.768364548,26.1469831 0.898108765,28.0959814 1.24742012,29.9540938 C1.57873808,31.5203346 2.09824987,33.0396614 2.7943704,34.4781934 C4.18611938,37.6344864 5.88093248,40.6448112 7.85439487,43.465802 C8.94225023,45.0108628 10.4792202,46.8588767 12.8445571,47.3839954 C13.1724346,47.4565161 13.5069723,47.4937507 13.8425895,47.4950782 C14.6183509,47.4695455 15.390119,47.3715102 16.1480444,47.2022235 C16.8992394,47.0330296 17.6643745,46.9349881 18.4335387,46.9093688 C18.6495502,46.8951318 18.8662483,46.8951318 19.0822598,46.9093688 C19.7617539,47.0091809 20.4301859,47.1748848 21.0783247,47.4041922 C22.1182697,47.7876294 23.2151444,47.9891109 24.3219301,48 C24.8192109,47.9976098 25.3158618,47.963883 25.8089985,47.8990156 C27.3308203,47.6563274 28.8298101,47.2847455 30.2901641,46.7881876 C31.1085507,46.5357267 31.9668586,46.2731673 32.8052059,46.0611002 L34.4020578,45.6672611 C36.717493,45.0916503 39.1227512,44.4958425 41.4880881,43.9505269 C43.2246645,43.5465894 45.0211229,43.2739317 46.7576994,43.0012739 C47.7557318,42.8497973 48.7038626,42.6983208 49.6719541,42.5266474 C50.3764733,42.387303 51.0728335,42.2086242 51.7578419,41.9914302 C52.5343908,41.7401495 53.3283599,41.5477469 54.1331591,41.4158193 C54.7793508,41.3606217 55.4298358,41.3877632 56.069342,41.4966068 C56.5316343,41.5721784 56.9984472,41.6160383 57.4665874,41.6278865 C57.8239759,41.6302554 58.179976,41.5826801 58.5245018,41.4865084 C59.2530655,41.2845396 59.6323178,41.0421772 59.7820227,40.6887319 C59.9130016,40.2192736 59.8287369,39.7151162 59.5524752,39.3153445 C59.3995452,39.0129191 59.2191208,38.7255567 59.0135377,38.4569774 C59.3728294,38.1035321 59.6921998,37.7702837 60.0115702,37.4471337 C61.0135557,36.2925492 62.2139357,35.3311445 63.5545853,34.609473 L64.0336409,34.3570121 C65.8182198,33.5365242 67.4756083,32.458208 68.9539408,31.1558077 C70.1531109,29.9081985 71.2418119,28.5565601 72.2075266,27.1164331 C72.6267002,26.5307237 73.0558541,25.9248175 73.4850081,25.3492067 C73.914162,24.7735958 74.5928241,23.9758193 75.1517223,23.3295193 C76.5985662,21.7910503 77.8035696,20.037081 78.7246784,18.1288245 C79.8533543,15.3587238 79.762613,12.2333367 78.4751703,9.5350549 C78.065977,8.63629404 78.3254654,7.9899941 79.2835766,7.51536758 L79.9223173,7.20231604 C80.6908023,6.82867389 81.4892283,6.44493329 82.2277723,6.01070052 C83.5514193,5.22622157 84.5160582,3.94537617 84.9124795,2.44595239 C85.0551583,2.07148386 85.0221172,1.65172505 84.8226566,1.30482905 Z M30.9887868,37.7399884 L36.0488113,37.7399884 C35.9415798,38.8293271 35.1653897,39.7309918 34.1136876,39.9879336 C33.0619855,40.2448754 31.9646921,39.8009224 31.3780195,38.8811117 C31.2175298,38.6707257 31.108134,38.4251312 31.0586491,38.1641227 C31.0237165,38.0249625 31.0003477,37.88309 30.9887868,37.7399884 L30.9887868,37.7399884 Z" id="Shape"></path>
        </g>
    </g>
</svg>
