<?xml version="1.0" encoding="UTF-8"?><svg xmlns="http://www.w3.org/2000/svg" xmlns:xlink="http://www.w3.org/1999/xlink"><symbol viewBox="0 0 86 73" id="logo" xmlns="http://www.w3.org/2000/svg"><title>Artboard</title><g fill-rule="nonzero" fill="none"><path d="M22.52 55.006c-.133.082-.277.185-.277.328v.134a.248.248 0 0 0 .088.206l-.232 8.038c0 .164 0 .606.089 1.316a.457.457 0 0 0-.188.298.376.376 0 0 0 .199.319v1.613l.132 1.789a.24.24 0 0 0 0 .134c0 .431.078.791.133 1.079a.182.182 0 0 0 0 .113v.37c.088.134.199.257.354.257h.01c.155-.062.277-.216.387-.504v-.195a.587.587 0 0 0-.143-.463c0-.36-.055-1.284-.144-2.806v-.473a8.158 8.158 0 0 1 0-.925c.136-.01.273-.01.409 0h.066a3.302 3.302 0 0 0 1.492-1.316A20.656 20.656 0 0 0 26 58.151a4.674 4.674 0 0 0-.21-1.08c-.46-1.3-1.802-2.148-3.27-2.065zm2.607 2.95v1.028c-.442 4.286-.983 5.211-1.293 5.396a1.54 1.54 0 0 1-.884.483v-1.161l.232-7.895c.236.044.469.103.696.175.734.427 1.196 1.16 1.238 1.963l.011.01zM29.785 57h-.332l-.743.72v.082a.653.653 0 0 0 0 .186 15.229 15.229 0 0 0-.708 4.835v.854c.052 1.842.105 3.272.157 4.27.21 2.726.69 4.053 1.477 4.053h.149c.268-.04.508-.217.656-.484.375-.679.559-2.716.559-6.234 0-2.233-.129-4.464-.385-6.677-.384-1.389-.629-1.605-.83-1.605zm.542 8.23v.093c0 5.545-.516 5.833-.612 5.833-.096 0-.516-.277-.77-2.057-.122-1.101-.218-3.19-.305-6.173l.078-1.286c.254-2.603.621-3.519.875-3.807.118.228.218.47.297.72.302 2.225.448 4.476.437 6.729v-.052zM38.697 57c-.36.046-.723.07-1.086.069H35.84c-.225 0-.617 0-1.145.078l-.313-.068h-.118c-.117.058-.264.147-.264.294a.64.64 0 0 0 .166.442l.06.059 1.428-.128h.107c.05.707.079 1.502.079 2.357.254 5.518.381 8.62.381 9.2v.491c.127.157.206.206.294.206h.166c.176 0 .254-.187.284-.245v-.295a.355.355 0 0 0 0-.157c0-1.866-.127-4.968-.382-9.22v-.314l-.088-1.964h1.145c1.027 0 1.36-.088 1.36-.344v-.166l-.225-.266-.078-.029zM45.704 57c-.364.046-.73.07-1.097.069h-1.76c-.226 0-.622 0-1.155.078l-.307-.068h-.119c-.118.058-.266.147-.266.294 0 .165.063.323.178.442l.05.059 1.442-.128h.06c.049.707.078 1.502.078 2.357.257 5.518.386 8.62.386 9.2v.491c.128.157.207.206.296.206h.168c.178 0 .257-.187.277-.245v-.295a.351.351 0 0 0 0-.157c0-1.866-.129-4.968-.386-9.22v-.314l-.079-1.964h1.156c.989 0 1.374-.088 1.374-.344v-.166l-.227-.266-.07-.029zM53.587 56h-.168l-.225.163v.082c-.207 3.155-.385 7.26-.544 12.253l-.169-.643c-.572-2.042-.937-3.41-1.05-4.084-.16-1.726-.328-1.89-.553-1.89l-.29.062v.092a47.091 47.091 0 0 0-.394 5.024l-.207-1.216c-.159-.96-.487-3.216-.937-6.698-.281-2.686-.422-2.686-.61-2.686h-.206a.43.43 0 0 0-.234.368c.037.22.093.435.169.643.59 4.84 1.2 8.833 1.79 11.866.17 1.552.3 1.664.488 1.664h.169l.234-.174v-.091c0-.868.084-2.747.262-5.586.15.613.413 1.583.854 3.145.59 2.349.768 2.349.937 2.349h.084c.207 0 .329-.256.441-.97.085-2.44.272-6.934.572-13.336-.225-.255-.31-.337-.413-.337zM59.903 57.609A2.566 2.566 0 0 0 58.769 56h-.109c-.557 0-.736.849-.795 1.145a48.542 48.542 0 0 0-.527 6.562v1.194c0 .612-.11 2.438-.338 5.458 0 .582.378.641.547.641.139-.079.268-.188.268-.336a.658.658 0 0 0-.09-.315l.289-3.948v-1.707a7.325 7.325 0 0 1 2.147-.355h.209c.218 1.618.358 2.516.417 2.714a16.55 16.55 0 0 0 .666 3.562v.089h.1c.288 0 .407-.128.447-.247v-.059a16.885 16.885 0 0 0-.338-3.316 46.355 46.355 0 0 0-1.76-9.473zm.536 5.97c-.775.02-1.546.128-2.296.326V62.938a26.301 26.301 0 0 1 .557-5.922c.102.154.192.316.268.484a34.332 34.332 0 0 1 1.471 6.079zM68.666 70.174h-2.35V66.56a23.735 23.735 0 0 0-.14-2.94c0-2.185-.109-4.903-.324-8.055a.537.537 0 0 0 0-.262v-.05c-.087-.12-.194-.252-.345-.252a.483.483 0 0 0-.507.343l.14 1.47c.119 2.527.248 5.749.378 9.595V70.084a.941.941 0 0 0 0 .352v.312c.086.131.194.252.345.252h2.156c.507 0 .981 0 .981-.342V70.447c-.108-.192-.237-.273-.334-.273zM84.823 1.305a.775.775 0 0 0-.669-.303h-.29c-.928.182-1.886.273-2.824.363a14.36 14.36 0 0 0-5.529 1.283.603.603 0 0 1-.589 0 1.588 1.588 0 0 0-.27-.121 9.03 9.03 0 0 0-1.876-.233 4.18 4.18 0 0 0-1.796.374 6.451 6.451 0 0 1-3.443.636c-.619-.06-.998.05-1.188.354a1.02 1.02 0 0 0 .09 1.01 5.007 5.007 0 0 0 3.503 3.03l.898.17c.719.132 1.467.273 2.176.465.377.03.717.24.915.565.197.326.228.728.083 1.081-.629 2.646-1.866 4.302-6.577 5.524A135.6 135.6 0 0 1 50.7 18.321a966.43 966.43 0 0 0-4.99.646c-2.015.32-4.05.498-6.088.535a20.6 20.6 0 0 1-3.463-.272 43.9 43.9 0 0 0-7.336-.738h-1.367c-1.437.071-2.905.111-4.322.152l-3.094.09c-4.414.024-8.796.77-12.974 2.212-1.617.626-3.922 1.667-5.17 3.525-1.128 1.676-.998 3.625-.649 5.483.332 1.566.851 3.086 1.547 4.524a52.942 52.942 0 0 0 5.06 8.988c1.088 1.545 2.625 3.393 4.99 3.918.328.073.663.11.999.111a12.455 12.455 0 0 0 2.305-.293c.751-.169 1.516-.267 2.286-.293.216-.014.432-.014.648 0 .68.1 1.348.266 1.996.495a9.65 9.65 0 0 0 3.244.596c.497-.002.994-.036 1.487-.101a27.25 27.25 0 0 0 4.481-1.11 51.525 51.525 0 0 1 2.515-.728l1.597-.394a430.16 430.16 0 0 1 7.086-1.716c1.737-.404 3.533-.677 5.27-.95a117.43 117.43 0 0 0 2.914-.474c.704-.14 1.4-.318 2.086-.536.776-.25 1.57-.443 2.375-.575a7.655 7.655 0 0 1 1.936.08c.463.076.93.12 1.398.132a3.84 3.84 0 0 0 1.058-.141c.728-.202 1.107-.445 1.257-.798.131-.47.047-.974-.23-1.374a5.483 5.483 0 0 0-.538-.858c.359-.353.678-.687.998-1.01a12.6 12.6 0 0 1 3.543-2.838l.479-.252a20.224 20.224 0 0 0 4.92-3.201c1.2-1.248 2.288-2.6 3.254-4.04.419-.585.848-1.191 1.277-1.767.43-.575 1.108-1.373 1.667-2.02a20.769 20.769 0 0 0 3.573-5.2 10.646 10.646 0 0 0-.25-8.594c-.409-.899-.15-1.545.809-2.02l.638-.313c.769-.373 1.567-.757 2.306-1.191a5.89 5.89 0 0 0 2.684-3.565c.143-.375.11-.794-.09-1.141zM30.989 37.74h5.06a2.566 2.566 0 0 1-1.935 2.248 2.532 2.532 0 0 1-2.736-1.107c-.16-.21-.27-.456-.32-.717a2.603 2.603 0 0 1-.07-.424z"/></g></symbol></svg>