<?xml version="1.0" encoding="UTF-8"?><svg xmlns="http://www.w3.org/2000/svg" xmlns:xlink="http://www.w3.org/1999/xlink"><symbol viewBox="0 0 86 71" id="logo" xmlns="http://www.w3.org/2000/svg"><title>logo</title><g fill-rule="nonzero" fill="#231F20"><path d="M22.44 54.48c-.12.08-.25.18-.25.32v.13a.25.25 0 0 0 .08.2l-.21 7.82c0 .16 0 .59.08 1.28a.45.45 0 0 0-.17.29.37.37 0 0 0 .18.31v1.57l.12 1.74a.25.25 0 0 0 0 .13c0 .42.07.77.12 1.05a.19.19 0 0 0 0 .11v.36c.08.13.18.25.32.25h.01c.14-.06.25-.21.35-.49v-.19a.6.6 0 0 0-.13-.45c0-.35-.05-1.25-.13-2.73v-.46a8.53 8.53 0 0 1 0-.9c.123-.01.247-.01.37 0h.06a3.07 3.07 0 0 0 1.35-1.28 21.45 21.45 0 0 0 1-6 4.85 4.85 0 0 0-.19-1.05 2.93 2.93 0 0 0-2.96-2.01zm2.36 2.87v1c-.4 4.17-.89 5.07-1.17 5.25a1.37 1.37 0 0 1-.8.47v-1.13l.21-7.68a5 5 0 0 1 .63.17 2.39 2.39 0 0 1 1.12 1.91l.01.01zM30.1 55.52h-.38l-.85.7v.08a.54.54 0 0 0 0 .18 12.76 12.76 0 0 0-.81 4.7v.83c.06 1.79.12 3.18.18 4.15.24 2.65.79 3.94 1.69 3.94h.17a1.05 1.05 0 0 0 .75-.47c.43-.66.64-2.64.64-6.06 0-2.17-.147-4.34-.44-6.49-.44-1.35-.72-1.56-.95-1.56zm.62 8v.09c0 5.39-.59 5.67-.7 5.67-.11 0-.59-.27-.88-2-.14-1.07-.25-3.1-.35-6l.09-1.25c.29-2.53.71-3.42 1-3.7a4 4 0 0 1 .34.7 39.92 39.92 0 0 1 .5 6.54v-.05zM38.72 55.59a8.61 8.61 0 0 1-1.11.07H35.8c-.23 0-.63 0-1.17.08l-.32-.07h-.12c-.12.06-.27.15-.27.3a.65.65 0 0 0 .17.45l.06.06 1.46-.13h.11c.05.72.08 1.53.08 2.4.26 5.62.39 8.78.39 9.37v.5c.13.16.21.21.3.21h.17c.18 0 .26-.19.29-.25v-.3a.36.36 0 0 0 0-.16c0-1.9-.13-5.06-.39-9.39v-.32l-.09-2h1.17c1.05 0 1.39-.09 1.39-.35v-.17l-.23-.27-.08-.03zM45.4 55.59a8.59 8.59 0 0 1-1.11.07h-1.78c-.23 0-.63 0-1.17.08l-.31-.07h-.12c-.12.06-.27.15-.27.3a.65.65 0 0 0 .18.45l.05.06 1.46-.13h.06c.05.72.08 1.53.08 2.4.26 5.62.39 8.78.39 9.37v.5c.13.16.21.21.3.21h.17c.18 0 .26-.19.28-.25v-.3a.36.36 0 0 0 0-.16c0-1.9-.13-5.06-.39-9.39v-.32l-.08-2h1.17c1 0 1.39-.09 1.39-.35v-.17l-.23-.27-.07-.03zM54.19 55.43h-.18l-.24.16v.08c-.22 3.09-.41 7.11-.58 12l-.18-.63c-.61-2-1-3.34-1.12-4-.17-1.69-.35-1.85-.59-1.85l-.31.06v.09a42.42 42.42 0 0 0-.42 4.92l-.22-1.19c-.17-.94-.52-3.15-1-6.56-.3-2.63-.45-2.63-.65-2.63h-.22a.42.42 0 0 0-.25.36c.04.215.1.426.18.63.63 4.74 1.28 8.65 1.91 11.62.18 1.52.32 1.63.52 1.63h.18l.25-.17v-.09c0-.85.09-2.69.28-5.47.16.6.44 1.55.91 3.08.63 2.3.82 2.3 1 2.3h.09c.22 0 .35-.25.47-.95.09-2.39.29-6.79.61-13.06-.24-.25-.33-.33-.44-.33zM59.95 56.55a2.6 2.6 0 0 0-1.14-1.63h-.11c-.56 0-.74.86-.8 1.16a49.54 49.54 0 0 0-.53 6.65v1.21c0 .62-.11 2.47-.34 5.53 0 .59.38.65.55.65.14-.08.27-.19.27-.34a.67.67 0 0 0-.09-.32l.29-4v-1.73a7.32 7.32 0 0 1 2.16-.36h.21c.22 1.64.36 2.55.42 2.75a16.88 16.88 0 0 0 .67 3.61v.09h.1c.29 0 .41-.13.45-.25v-.06a17.23 17.23 0 0 0-.34-3.36 47.28 47.28 0 0 0-1.77-9.6zm.54 6.05a10 10 0 0 0-2.31.33V61.95a26.84 26.84 0 0 1 .56-6c.103.156.193.32.27.49a35 35 0 0 1 1.48 6.16zM68.63 69.32h-2.18v-3.59a25.23 25.23 0 0 0-.13-2.92c0-2.17-.1-4.87-.3-8a.57.57 0 0 0 0-.26v-.05c-.08-.12-.18-.25-.32-.25a.45.45 0 0 0-.47.34l.13 1.46c.11 2.51.23 5.71.35 9.53v3.65a1 1 0 0 0 0 .35v.31c.08.13.18.25.32.25h2c.47 0 .91 0 .91-.34V69.59c-.1-.19-.22-.27-.31-.27zM84.91.52a.78.78 0 0 0-.67-.3h-.29c-.93.18-1.89.27-2.83.36a14.53 14.53 0 0 0-5.54 1.27.61.61 0 0 1-.59 0 1.6 1.6 0 0 0-.27-.12 9.15 9.15 0 0 0-1.88-.23 4.23 4.23 0 0 0-1.8.37 6.53 6.53 0 0 1-3.45.63c-.62-.06-1 .05-1.19.35a1 1 0 0 0 .09 1 5 5 0 0 0 3.51 3l.9.17c.72.13 1.47.27 2.18.46a1.18 1.18 0 0 1 1 1.63c-.63 2.62-1.87 4.26-6.59 5.47a137.34 137.34 0 0 1-16.77 2.79c-1.67.21-3.32.42-5 .64a44.64 44.64 0 0 1-6.1.53 20.88 20.88 0 0 1-3.47-.27 44.49 44.49 0 0 0-7.35-.73h-1.37c-1.44.07-2.91.11-4.33.15l-3.1.09a40.94 40.94 0 0 0-13 2.19c-1.62.62-3.93 1.65-5.18 3.49-1.13 1.66-1 3.59-.65 5.43a19.44 19.44 0 0 0 1.55 4.48 52.26 52.26 0 0 0 5.07 8.9c1.09 1.53 2.63 3.36 5 3.88a4.77 4.77 0 0 0 1 .11 12.62 12.62 0 0 0 2.31-.29 12.42 12.42 0 0 1 2.29-.29 5 5 0 0 1 .65 0c.68.099 1.35.263 2 .49a9.77 9.77 0 0 0 3.25.59 12 12 0 0 0 1.49-.1 27.57 27.57 0 0 0 4.49-1.1c.82-.25 1.68-.51 2.52-.72l1.6-.39c2.32-.57 4.73-1.16 7.1-1.7 1.74-.4 3.54-.67 5.28-.94 1-.15 1.95-.3 2.92-.47a19.5 19.5 0 0 0 2.09-.53 16.45 16.45 0 0 1 2.38-.57 7.76 7.76 0 0 1 1.94.08c.463.075.93.118 1.4.13a3.89 3.89 0 0 0 1.06-.14c.73-.2 1.11-.44 1.26-.79a1.61 1.61 0 0 0-.23-1.36 5.42 5.42 0 0 0-.54-.85c.36-.35.68-.68 1-1a12.6 12.6 0 0 1 3.55-2.81l.48-.25a20.29 20.29 0 0 0 4.93-3.17 29.47 29.47 0 0 0 3.26-4c.42-.58.85-1.18 1.28-1.75.43-.57 1.11-1.36 1.67-2a20.56 20.56 0 0 0 3.58-5.15 10.43 10.43 0 0 0-.25-8.51c-.41-.89-.15-1.53.81-2l.64-.31c.77-.37 1.57-.75 2.31-1.18A5.84 5.84 0 0 0 85 1.65a1.31 1.31 0 0 0-.09-1.13zM30.97 36.6h5.07a2.55 2.55 0 0 1-4.68 1.13 1.68 1.68 0 0 1-.32-.71 2.55 2.55 0 0 1-.07-.42z"/></g></symbol></svg>