<svg id="Layer_1" data-name="Layer 1" xmlns="http://www.w3.org/2000/svg" viewBox="0 0 84 47"><title>logo-small</title><path id="Shape" d="M84.82,1.3a.77.77,0,0,0-.67-.3h-.29c-.93.18-1.89.27-2.82.36a14.36,14.36,0,0,0-5.53,1.28.6.6,0,0,1-.59,0,1.59,1.59,0,0,0-.27-.12,9,9,0,0,0-1.88-.23,4.18,4.18,0,0,0-1.8.37,6.45,6.45,0,0,1-3.44.64c-.62-.06-1,.05-1.19.35a1,1,0,0,0,.09,1,5,5,0,0,0,3.5,3l.9.17c.72.13,1.47.27,2.18.46a1.18,1.18,0,0,1,.91.57A1.2,1.2,0,0,1,74,10c-.63,2.65-1.87,4.3-6.58,5.52A135.6,135.6,0,0,1,50.7,18.32l-5,.65a44,44,0,0,1-6.09.54,20.6,20.6,0,0,1-3.46-.27,43.9,43.9,0,0,0-7.34-.74H27.46c-1.44.07-2.9.11-4.32.15L20,18.73a40.43,40.43,0,0,0-13,2.21c-1.62.63-3.92,1.67-5.17,3.52C.77,26.15.9,28.1,1.25,30a19.79,19.79,0,0,0,1.55,4.52,52.94,52.94,0,0,0,5.06,9c1.09,1.55,2.62,3.39,5,3.92a4.71,4.71,0,0,0,1,.11,12.46,12.46,0,0,0,2.31-.29,12.26,12.26,0,0,1,2.29-.29,4.93,4.93,0,0,1,.65,0,10.61,10.61,0,0,1,2,.49,9.65,9.65,0,0,0,3.24.6,11.84,11.84,0,0,0,1.49-.1,27.25,27.25,0,0,0,4.48-1.11c.82-.25,1.68-.52,2.52-.73l1.6-.39c2.32-.58,4.72-1.17,7.09-1.72,1.74-.4,3.53-.68,5.27-.95,1-.15,1.95-.3,2.91-.47A19.27,19.27,0,0,0,51.76,42a16.26,16.26,0,0,1,2.38-.58,7.66,7.66,0,0,1,1.94.08,10.27,10.27,0,0,0,1.4.13,3.84,3.84,0,0,0,1.06-.14c.73-.2,1.11-.44,1.26-.8a1.64,1.64,0,0,0-.23-1.37,5.48,5.48,0,0,0-.54-.86c.36-.35.68-.69,1-1a12.6,12.6,0,0,1,3.54-2.84l.48-.25A20.22,20.22,0,0,0,69,31.16a29.69,29.69,0,0,0,3.25-4c.42-.59.85-1.19,1.28-1.77s1.11-1.37,1.67-2a20.77,20.77,0,0,0,3.57-5.2,10.65,10.65,0,0,0-.25-8.59,1.37,1.37,0,0,1,.81-2l.64-.31c.77-.37,1.57-.76,2.31-1.19a5.89,5.89,0,0,0,2.68-3.56A1.34,1.34,0,0,0,84.82,1.3ZM31,37.74H36A2.57,2.57,0,0,1,34.11,40a2.53,2.53,0,0,1-2.74-1.11,1.71,1.71,0,0,1-.32-.72,2.6,2.6,0,0,1-.07-.42Z" transform="translate(-1 -1)"/></svg>